<svg width="626" height="653" viewBox="0 0 626 653" fill="none" xmlns="http://www.w3.org/2000/svg">
<path fill-rule="evenodd" clip-rule="evenodd" d="M753.5 411.457V376.75H822V411.457C822 465.572 811.497 519.23 791.175 568.093C769.94 617.87 739.8 663.08 701.44 701.44C621.523 782.042 516.033 822 411.457 822C305.967 822 200.477 782.042 120.56 701.44L96.3567 677.237L120.56 653.262L293.18 480.642C262.127 427.897 268.977 359.397 314.187 314.187C359.397 268.977 427.897 262.127 480.642 293.18L530.418 243.403C495.027 218.515 452.785 205.728 411.457 205.728C358.712 205.728 305.967 225.365 266.008 266.008C246.372 284.732 231.302 308.25 220.798 332.225C210.98 357.113 205.728 383.6 205.728 411.457V445.25H137.228V411.457C137.228 375.152 143.85 339.075 158.235 306.652C171.707 273.543 191.343 242.49 216.917 216.917C270.575 163.487 341.358 137.228 411.457 137.228C470.138 137.228 529.733 155.952 579.51 194.312L627.688 146.133C565.125 94.0733 488.177 68.5 411.457 68.5C323.32 68.5 235.868 101.608 168.738 168.738C136.315 201.162 111.427 238.837 94.0733 279.48C77.6333 321.037 68.5 365.333 68.5 411.457V445.25H0V411.457C0 357.113 10.5033 303.683 31.7383 253.907C52.06 204.13 82.2 158.92 120.56 120.56C200.477 39.9583 305.967 0 411.457 0C516.033 0 621.523 39.9583 701.44 120.56L726.328 144.763L677.465 192.942L629.058 241.805L580.88 289.983L528.82 341.358C559.873 394.103 553.023 462.603 507.813 507.813C462.603 553.023 394.103 559.873 341.358 528.82L292.267 578.597C327.658 604.17 369.215 616.272 411.457 616.272C463.288 616.272 516.033 596.635 555.992 556.677C575.628 537.268 590.698 514.663 601.202 489.775C611.02 465.572 616.272 438.4 616.272 411.457V376.75H685V411.457C685 447.533 678.15 482.925 664.45 516.033C650.293 549.142 630.657 579.51 605.083 605.083C551.425 658.513 481.555 684.772 411.457 684.772C351.862 684.772 292.267 666.048 243.403 627.688L194.312 676.552C256.875 727.927 333.823 753.5 411.457 753.5C498.68 753.5 586.132 720.392 653.262 653.262C685.685 620.838 710.573 583.163 727.927 542.52C744.367 500.963 753.5 456.667 753.5 411.457ZM760.122 232.9C779.073 233.585 793.458 250.025 792.545 268.977C791.86 287.928 776.105 302.085 757.153 301.4C738.43 300.715 723.36 284.732 724.045 266.008C724.73 247.057 741.398 231.987 760.122 232.9ZM63.2483 521.285C82.2 522.198 97.27 537.953 96.3567 557.59C94.9867 576.313 79.2317 590.698 60.28 590.013C41.5567 589.1 27.1717 573.345 27.8567 554.622C28.5417 535.67 44.525 520.6 63.2483 521.285ZM411.457 342.728C393.19 342.728 376.065 349.578 362.365 362.365C349.578 376.065 342.728 393.19 342.728 411.457C342.728 428.81 349.578 445.935 362.365 459.635C376.065 473.107 393.19 479.957 411.457 479.957C428.81 479.957 445.935 473.107 459.635 459.635C473.107 445.935 479.957 428.81 479.957 411.457C479.957 393.19 473.107 376.065 459.635 362.365C445.935 349.578 428.81 342.728 411.457 342.728Z" fill="white"/>
</svg>
