<svg width="240" height="61" viewBox="0 0 240 61" fill="none" xmlns="http://www.w3.org/2000/svg">
<path fill-rule="evenodd" clip-rule="evenodd" d="M93.9745 38.125C91.8979 40.1922 89.3106 41.192 86.2808 41.192C83.2511 41.192 80.7319 40.1922 78.6553 38.125C76.5787 36.0747 75.5745 33.567 75.5745 30.5C75.5745 27.5517 76.5787 24.9761 78.6553 22.9767C80.7319 20.8586 83.3191 19.8589 86.2808 19.8589C89.3106 19.8589 91.8298 20.8586 93.9745 22.9767C96.0511 25.0439 97.1064 27.5517 97.1064 30.5C97.1064 33.4992 96.0511 36.0747 93.9745 38.125ZM82.366 34.5159C83.4213 35.5664 84.7149 36.1256 86.2808 36.1256C87.8638 36.1256 89.2085 35.5664 90.2638 34.5159C91.3362 33.4484 91.8298 32.1097 91.8298 30.5C91.8298 28.8734 91.3362 27.5517 90.2638 26.535C89.2085 25.4845 87.8638 24.9253 86.2808 24.9253C84.7149 24.9253 83.4213 25.4845 82.366 26.535C81.3447 27.6025 80.783 28.9411 80.783 30.5C80.783 32.1097 81.3447 33.4484 82.366 34.5159ZM113.549 23.8578L104.902 35.7359H113.94V40.6328H97.8383V37.1253L106.417 25.315H98.2808V20.4181H113.549V23.8578ZM137.77 19.8589C140.511 19.8589 142.877 20.8586 144.783 22.9767C146.74 25.0439 147.694 27.5517 147.694 30.5C147.694 33.567 146.74 36.0747 144.783 38.125C142.877 40.1922 140.511 41.192 137.77 41.192C134.911 41.192 132.715 40.1922 131.2 38.2436V48.7153H125.94V20.4181H131.2V22.8072C132.715 20.8586 134.911 19.8589 137.77 19.8589ZM132.783 34.6175C133.838 35.685 135.183 36.2442 136.817 36.2442C138.434 36.2442 139.779 35.685 140.851 34.6175C141.923 33.567 142.485 32.1775 142.485 30.5C142.485 28.8225 141.923 27.4839 140.851 26.4334C139.779 25.3659 138.434 24.8067 136.817 24.8067C135.183 24.8067 133.838 25.3659 132.783 26.4334C131.711 27.4839 131.2 28.8225 131.2 30.5C131.2 32.1775 131.711 33.567 132.783 34.6175ZM155.66 40.6328H150.383V11.0986H155.66V40.6328ZM174.894 22.8072V20.4181H180.102V40.6328H174.894V38.2436C173.328 40.1922 171.081 41.192 168.272 41.192C165.532 41.192 163.234 40.1922 161.26 38.125C159.302 36.0747 158.349 33.4992 158.349 30.5C158.349 27.5517 159.302 25.0439 161.26 22.9767C163.234 20.8586 165.532 19.8589 168.272 19.8589C171.081 19.8589 173.328 20.8586 174.894 22.8072ZM165.191 34.6175C166.264 35.685 167.609 36.2442 169.226 36.2442C170.86 36.2442 172.204 35.685 173.26 34.6175C174.332 33.567 174.894 32.1775 174.894 30.5C174.894 28.8225 174.332 27.4839 173.26 26.4334C172.204 25.3659 170.86 24.8067 169.226 24.8067C167.609 24.8067 166.264 25.3659 165.191 26.4334C164.119 27.4839 163.626 28.8225 163.626 30.5C163.626 32.1775 164.119 33.567 165.191 34.6175ZM195.2 19.8589C197.43 19.8589 199.285 20.5706 200.681 22.0786C202.145 23.5867 202.877 25.6539 202.877 28.2125V40.6328H197.6V28.8734C197.6 27.5517 197.277 26.535 196.545 25.7556C195.813 25.0439 194.86 24.705 193.617 24.705C192.221 24.705 191.098 25.1456 190.315 25.9759C189.532 26.8231 189.14 28.0431 189.14 29.7206V40.6328H183.864V20.4181H189.14V22.6886C190.366 20.8078 192.391 19.8589 195.2 19.8589ZM226.094 32.6689H210.774C211.455 35.1767 213.362 36.4645 216.511 36.4645C218.519 36.4645 220.034 35.7867 221.038 34.4481L225.311 36.8542C223.285 39.7517 220.323 41.192 216.443 41.192C213.089 41.192 210.383 40.1922 208.323 38.1928C206.298 36.1256 205.294 33.6178 205.294 30.5C205.294 27.4839 206.298 24.9761 208.323 22.9259C210.281 20.8586 212.851 19.8589 216 19.8589C219.03 19.8589 221.498 20.8586 223.404 22.9259C225.362 24.9761 226.315 27.4839 226.315 30.5C226.315 31.11 226.264 31.7709 226.094 32.6689ZM210.672 28.6022H221.038C220.766 27.3145 220.153 26.2639 219.251 25.5861C218.349 24.8745 217.294 24.5356 216 24.5356C214.604 24.5356 213.413 24.8745 212.528 25.5861C211.626 26.3147 211.013 27.3145 210.672 28.6022ZM240 20.4181V25.4336H235.404V33.8381C235.404 34.5159 235.574 35.075 235.915 35.3461C236.238 35.685 236.8 35.9053 237.481 35.9053C238.145 35.9561 238.996 35.9561 240 35.9053V40.6328C236.409 41.0225 233.889 40.7006 232.374 39.6331C230.911 38.5825 230.128 36.6339 230.128 33.8381V25.4336H226.604V20.4181H230.128V16.3345L235.404 14.7247V20.4181H240Z" fill="white"/>
<path fill-rule="evenodd" clip-rule="evenodd" d="M56.1702 30.5339V27.9583H61.2766V30.5339C61.2766 34.5497 60.4936 38.5317 58.9787 42.1578C57.3957 45.8517 55.1489 49.2067 52.2894 52.0533C46.3319 58.0347 38.4681 61 30.6723 61C22.8085 61 14.9447 58.0347 8.98723 52.0533L7.18298 50.2572L8.98723 48.4781L21.8553 35.6681C19.5404 31.7539 20.0511 26.6706 23.4213 23.3156C26.7915 19.9606 31.8979 19.4522 35.8298 21.7567L39.5404 18.0628C36.9021 16.2158 33.7532 15.2669 30.6723 15.2669C26.7404 15.2669 22.8085 16.7242 19.8298 19.7403C18.366 21.1297 17.2426 22.875 16.4596 24.6542C15.7277 26.5011 15.3362 28.4667 15.3362 30.5339V33.0417H10.2298V30.5339C10.2298 27.8397 10.7234 25.1625 11.7957 22.7564C12.8 20.2994 14.2638 17.995 16.1702 16.0972C20.1702 12.1322 25.4468 10.1836 30.6723 10.1836C35.0468 10.1836 39.4894 11.5731 43.2 14.4197L46.7915 10.8444C42.1277 6.98111 36.3915 5.08333 30.6723 5.08333C24.1021 5.08333 17.583 7.54028 12.5787 12.5219C10.1617 14.9281 8.30638 17.7239 7.01277 20.74C5.78723 23.8239 5.10638 27.1111 5.10638 30.5339V33.0417H0V30.5339C0 26.5011 0.782979 22.5361 2.36596 18.8422C3.88085 15.1483 6.12766 11.7933 8.98723 8.94667C14.9447 2.96528 22.8085 0 30.6723 0C38.4681 0 46.3319 2.96528 52.2894 8.94667L54.1447 10.7428L50.5021 14.3181L46.8936 17.9442L43.3021 21.5194L39.4213 25.3319C41.7362 29.2461 41.2255 34.3294 37.8553 37.6844C34.4851 41.0394 29.3787 41.5478 25.4468 39.2433L21.7872 42.9372C24.4255 44.835 27.5234 45.7331 30.6723 45.7331C34.5362 45.7331 38.4681 44.2758 41.4468 41.3106C42.9106 39.8703 44.034 38.1928 44.817 36.3458C45.5489 34.5497 45.9404 32.5333 45.9404 30.5339V27.9583H51.0638V30.5339C51.0638 33.2111 50.5532 35.8375 49.5319 38.2944C48.4766 40.7514 47.0128 43.005 45.1064 44.9028C41.1064 48.8678 35.8979 50.8164 30.6723 50.8164C26.2298 50.8164 21.7872 49.4269 18.1447 46.5803L14.4851 50.2064C19.1489 54.0189 24.8851 55.9167 30.6723 55.9167C37.1745 55.9167 43.6936 53.4597 48.6979 48.4781C51.1149 46.0719 52.9702 43.2761 54.2638 40.26C55.4894 37.1761 56.1702 33.8889 56.1702 30.5339ZM56.6638 17.2833C58.0766 17.3342 59.1489 18.5542 59.0808 19.9606C59.0298 21.3669 57.8553 22.4175 56.4426 22.3667C55.0468 22.3158 53.9234 21.1297 53.9745 19.7403C54.0255 18.3339 55.2681 17.2156 56.6638 17.2833ZM4.71489 38.6842C6.12766 38.7519 7.25106 39.9211 7.18298 41.3783C7.08085 42.7678 5.90638 43.8353 4.49362 43.7844C3.09787 43.7167 2.02553 42.5475 2.0766 41.1581C2.12766 39.7517 3.31915 38.6333 4.71489 38.6842ZM30.6723 25.4336C29.3106 25.4336 28.034 25.9419 27.0128 26.8908C26.0596 27.9075 25.5489 29.1783 25.5489 30.5339C25.5489 31.8217 26.0596 33.0925 27.0128 34.1092C28.034 35.1089 29.3106 35.6172 30.6723 35.6172C31.966 35.6172 33.2426 35.1089 34.2638 34.1092C35.2681 33.0925 35.7787 31.8217 35.7787 30.5339C35.7787 29.1783 35.2681 27.9075 34.2638 26.8908C33.2426 25.9419 31.966 25.4336 30.6723 25.4336Z" fill="white"/>
</svg>
